{
  "accessors": [
    {
      "bufferView": 2,
      "componentType": 5126,
      "count": 65532,
      "max": [
        172.93215942382813,
        173.7430877685547,
        27.664907455444336
      ],
      "min": [
        -184.387939453125,
        -171.75637817382813,
        -112.7326889038086
      ],
      "type": "VEC3"
    },
    {
      "bufferView": 2,
      "byteOffset": 786384,
      "componentType": 5126,
      "count": 65532,
      "max": [
        0.9998814463615417,
        0.9860771894454956,
        0.9999890327453613
      ],
      "min": [
        -0.9992992877960205,
        -0.9999746680259705,
        -0.9999968409538269
      ],
      "type": "VEC3"
    },
    {
      "bufferView": 1,
      "componentType": 5126,
      "count": 65532,
      "max": [
        0.8929290175437927,
        0.967851996421814
      ],
      "min": [
        0.00190100003965199,
        0.005543999839574099
      ],
      "type": "VEC2"
    },
    {
      "bufferView": 0,
      "componentType": 5125,
      "count": 322893,
      "type": "SCALAR"
    },
    {
      "bufferView": 2,
      "byteOffset": 1572768,
      "componentType": 5126,
      "count": 65532,
      "max": [
        161.9199676513672,
        171.70858764648438,
        27.622045516967773
      ],
      "min": [
        -180.7488555908203,
        -174.09732055664063,
        -112.34539794921875
      ],
      "type": "VEC3"
    },
    {
      "bufferView": 2,
      "byteOffset": 2359152,
      "componentType": 5126,
      "count": 65532,
      "max": [
        0.9732451438903809,
        0.9713508486747742,
        0.9999951720237732
      ],
      "min": [
        -0.9618682861328125,
        -0.9998064637184143,
        -0.9999998807907104
      ],
      "type": "VEC3"
    },
    {
      "bufferView": 1,
      "byteOffset": 524256,
      "componentType": 5126,
      "count": 65532,
      "max": [
        0.936693012714386,
        0.9595469832420349
      ],
      "min": [
        0.002305000089108944,
        0.002879000036045909
      ],
      "type": "VEC2"
    },
    {
      "bufferView": 0,
      "byteOffset": 1291572,
      "componentType": 5125,
      "count": 328305,
      "type": "SCALAR"
    },
    {
      "bufferView": 2,
      "byteOffset": 3145536,
      "componentType": 5126,
      "count": 65532,
      "max": [
        170.64231872558594,
        179.23171997070313,
        27.77137565612793
      ],
      "min": [
        -182.7217559814453,
        -167.95628356933594,
        -113.022216796875
      ],
      "type": "VEC3"
    },
    {
      "bufferView": 2,
      "byteOffset": 3931920,
      "componentType": 5126,
      "count": 65532,
      "max": [
        0.9999982714653015,
        0.9999921321868896,
        0.9999985098838806
      ],
      "min": [
        -0.9998525381088257,
        -0.9990928769111633,
        -0.999999463558197
      ],
      "type": "VEC3"
    },
    {
      "bufferView": 1,
      "byteOffset": 1048512,
      "componentType": 5126,
      "count": 65532,
      "max": [
        0.9282320141792297,
        0.9645059704780579
      ],
      "min": [
        0.001969000091776252,
        0.005963000003248453
      ],
      "type": "VEC2"
    },
    {
      "bufferView": 0,
      "byteOffset": 2604792,
      "componentType": 5125,
      "count": 327546,
      "type": "SCALAR"
    },
    {
      "bufferView": 2,
      "byteOffset": 4718304,
      "componentType": 5126,
      "count": 65532,
      "max": [
        172.77438354492188,
        179.18515014648438,
        27.761638641357422
      ],
      "min": [
        -184.56747436523438,
        -174.09732055664063,
        -113.02532196044922
      ],
      "type": "VEC3"
    },
    {
      "bufferView": 2,
      "byteOffset": 5504688,
      "componentType": 5126,
      "count": 65532,
      "max": [
        0.9999270439147949,
        0.9998681545257568,
        1.0
      ],
      "min": [
        -0.9999991059303284,
        -0.9999746680259705,
        -0.9999964237213135
      ],
      "type": "VEC3"
    },
    {
      "bufferView": 1,
      "byteOffset": 1572768,
      "componentType": 5126,
      "count": 65532,
      "max": [
        0.9399210214614868,
        0.9786750078201294
      ],
      "min": [
        0.0018759999657049775,
        0.0019920000340789557
      ],
      "type": "VEC2"
    },
    {
      "bufferView": 0,
      "byteOffset": 3914976,
      "componentType": 5125,
      "count": 309291,
      "type": "SCALAR"
    },
    {
      "bufferView": 2,
      "byteOffset": 6291072,
      "componentType": 5126,
      "count": 65533,
      "max": [
        172.90103149414063,
        179.16587829589844,
        27.754127502441406
      ],
      "min": [
        -184.52638244628906,
        -174.0326690673828,
        -113.02430725097656
      ],
      "type": "VEC3"
    },
    {
      "bufferView": 2,
      "byteOffset": 7077468,
      "componentType": 5126,
      "count": 65533,
      "max": [
        0.9999395608901978,
        0.9997327923774719,
        0.9999962449073792
      ],
      "min": [
        -0.9999991059303284,
        -0.9999094605445862,
        -0.9999983906745911
      ],
      "type": "VEC3"
    },
    {
      "bufferView": 1,
      "byteOffset": 2097024,
      "componentType": 5126,
      "count": 65533,
      "max": [
        0.9399210214614868,
        0.9954559803009033
      ],
      "min": [
        0.0018759999657049775,
        0.0019920000340789557
      ],
      "type": "VEC2"
    },
    {
      "bufferView": 0,
      "byteOffset": 5152140,
      "componentType": 5125,
      "count": 190908,
      "type": "SCALAR"
    },
    {
      "bufferView": 2,
      "byteOffset": 7863864,
      "componentType": 5126,
      "count": 15414,
      "max": [
        172.4480743408203,
        179.11758422851563,
        27.70454216003418
      ],
      "min": [
        -184.46275329589844,
        -174.09188842773438,
        -112.87855529785156
      ],
      "type": "VEC3"
    },
    {
      "bufferView": 2,
      "byteOffset": 8048832,
      "componentType": 5126,
      "count": 15414,
      "max": [
        0.9990451335906982,
        0.9984717965126038,
        0.9999951124191284
      ],
      "min": [
        -0.9930598735809326,
        -0.9993347525596619,
        -0.9999967217445374
      ],
      "type": "VEC3"
    },
    {
      "bufferView": 1,
      "byteOffset": 2621288,
      "componentType": 5126,
      "count": 15414,
      "max": [
        0.9399210214614868,
        0.9980080127716064
      ],
      "min": [
        0.0018759999657049775,
        0.0027719999197870493
      ],
      "type": "VEC2"
    },
    {
      "bufferView": 0,
      "byteOffset": 5915772,
      "componentType": 5125,
      "count": 21684,
      "type": "SCALAR"
    }
  ],
  "asset": {
    "extras": {
      "author": "The Hunt Museum (https://sketchfab.com/TheHuntMuseum)",
      "license": "CC-BY-4.0 (http://creativecommons.org/licenses/by/4.0/)",
      "source": "https://sketchfab.com/3d-models/english-delftware-bowl-433f602b49724608a47e28e5e76e02b4",
      "title": "English Delftware Bowl"
    },
    "generator": "Sketchfab-14.52.0",
    "version": "2.0"
  },
  "bufferViews": [
    {
      "buffer": 0,
      "byteLength": 6002508,
      "name": "floatBufferViews",
      "target": 34963
    },
    {
      "buffer": 0,
      "byteLength": 2744600,
      "byteOffset": 6002508,
      "byteStride": 8,
      "name": "floatBufferViews",
      "target": 34962
    },
    {
      "buffer": 0,
      "byteLength": 8233800,
      "byteOffset": 8747108,
      "byteStride": 12,
      "name": "floatBufferViews",
      "target": 34962
    }
  ],
  "buffers": [
    {
      "byteLength": 16980908,
      "uri": "scene.bin"
    }
  ],
  "images": [
    {
      "uri": "textures/initialShadingGroup_baseColor.jpeg"
    }
  ],
  "materials": [
    {
      "doubleSided": true,
      "name": "initialShadingGroup",
      "pbrMetallicRoughness": {
        "baseColorTexture": {
          "index": 0
        },
        "metallicFactor": 0.17523862929867975,
        "roughnessFactor": 0.12380685350660126
      }
    }
  ],
  "meshes": [
    {
      "name": "Object_0",
      "primitives": [
        {
          "attributes": {
            "NORMAL": 1,
            "POSITION": 0,
            "TEXCOORD_0": 2
          },
          "indices": 3,
          "material": 0,
          "mode": 4
        }
      ]
    },
    {
      "name": "Object_1",
      "primitives": [
        {
          "attributes": {
            "NORMAL": 5,
            "POSITION": 4,
            "TEXCOORD_0": 6
          },
          "indices": 7,
          "material": 0,
          "mode": 4
        }
      ]
    },
    {
      "name": "Object_2",
      "primitives": [
        {
          "attributes": {
            "NORMAL": 9,
            "POSITION": 8,
            "TEXCOORD_0": 10
          },
          "indices": 11,
          "material": 0,
          "mode": 4
        }
      ]
    },
    {
      "name": "Object_3",
      "primitives": [
        {
          "attributes": {
            "NORMAL": 13,
            "POSITION": 12,
            "TEXCOORD_0": 14
          },
          "indices": 15,
          "material": 0,
          "mode": 4
        }
      ]
    },
    {
      "name": "Object_4",
      "primitives": [
        {
          "attributes": {
            "NORMAL": 17,
            "POSITION": 16,
            "TEXCOORD_0": 18
          },
          "indices": 19,
          "material": 0,
          "mode": 4
        }
      ]
    },
    {
      "name": "Object_5",
      "primitives": [
        {
          "attributes": {
            "NORMAL": 21,
            "POSITION": 20,
            "TEXCOORD_0": 22
          },
          "indices": 23,
          "material": 0,
          "mode": 4
        }
      ]
    }
  ],
  "nodes": [
    {
      "children": [
        1
      ],
      "matrix": [
        1.0,
        0.0,
        0.0,
        0.0,
        0.0,
        2.220446049250313e-16,
        -1.0,
        0.0,
        0.0,
        1.0,
        2.220446049250313e-16,
        0.0,
        0.0,
        0.0,
        0.0,
        1.0
      ],
      "name": "Sketchfab_model"
    },
    {
      "children": [
        2,
        3,
        4,
        5,
        6,
        7
      ],
      "name": "HCL 052 Bowl.OBJ.cleaner.materialmerger.gles"
    },
    {
      "mesh": 0,
      "name": "Object_2"
    },
    {
      "mesh": 1,
      "name": "Object_3"
    },
    {
      "mesh": 2,
      "name": "Object_4"
    },
    {
      "mesh": 3,
      "name": "Object_5"
    },
    {
      "mesh": 4,
      "name": "Object_6"
    },
    {
      "mesh": 5,
      "name": "Object_7"
    }
  ],
  "samplers": [
    {
      "magFilter": 9729,
      "minFilter": 9987,
      "wrapS": 10497,
      "wrapT": 10497
    }
  ],
  "scene": 0,
  "scenes": [
    {
      "name": "Sketchfab_Scene",
      "nodes": [
        0
      ]
    }
  ],
  "textures": [
    {
      "sampler": 0,
      "source": 0
    }
  ]
}
